<mxfile host="app.diagrams.net" modified="2023-11-23T19:35:41.772Z" agent="Mozilla/5.0 (X11; Linux x86_64) AppleWebKit/537.36 (KHTML, like Gecko) Chrome/119.0.0.0 Safari/537.36" etag="uNJxk747pgSKzvi-_fWv" version="22.1.3" type="github">
  <diagram name="Page-1" id="IDXD2v0akmDBMtql0cpM">
    <mxGraphModel dx="1434" dy="798" grid="1" gridSize="10" guides="1" tooltips="1" connect="1" arrows="1" fold="1" page="1" pageScale="1" pageWidth="850" pageHeight="1100" math="0" shadow="0">
      <root>
        <mxCell id="0" />
        <mxCell id="1" parent="0" />
        <mxCell id="cvaYXPBMhyoPEqe5Zm85-2" value="" style="rounded=0;whiteSpace=wrap;html=1;dashed=1;strokeColor=#FF8000;" vertex="1" parent="1">
          <mxGeometry x="352" y="120" width="478" height="510" as="geometry" />
        </mxCell>
        <mxCell id="cvaYXPBMhyoPEqe5Zm85-5" value="&lt;font color=&quot;#ff8000&quot; style=&quot;font-size: 15px;&quot;&gt;AWS&lt;/font&gt;" style="text;html=1;strokeColor=none;fillColor=none;align=center;verticalAlign=middle;whiteSpace=wrap;rounded=0;fontSize=15;" vertex="1" parent="1">
          <mxGeometry x="492" y="630" width="60" height="30" as="geometry" />
        </mxCell>
        <mxCell id="cvaYXPBMhyoPEqe5Zm85-9" value="" style="endArrow=classic;html=1;rounded=0;opacity=30;" edge="1" parent="1">
          <mxGeometry width="50" height="50" relative="1" as="geometry">
            <mxPoint x="590" y="260" as="sourcePoint" />
            <mxPoint x="681" y="313" as="targetPoint" />
          </mxGeometry>
        </mxCell>
        <mxCell id="cvaYXPBMhyoPEqe5Zm85-14" value="" style="group" vertex="1" connectable="0" parent="1">
          <mxGeometry x="452" y="490" width="135" height="58" as="geometry" />
        </mxCell>
        <mxCell id="cvaYXPBMhyoPEqe5Zm85-11" value="RDS /commerce-store" style="text;html=1;strokeColor=none;fillColor=none;align=center;verticalAlign=middle;whiteSpace=wrap;rounded=0;" vertex="1" parent="cvaYXPBMhyoPEqe5Zm85-14">
          <mxGeometry y="58" width="135" as="geometry" />
        </mxCell>
        <mxCell id="cvaYXPBMhyoPEqe5Zm85-13" value="" style="sketch=0;points=[[0,0,0],[0.25,0,0],[0.5,0,0],[0.75,0,0],[1,0,0],[0,1,0],[0.25,1,0],[0.5,1,0],[0.75,1,0],[1,1,0],[0,0.25,0],[0,0.5,0],[0,0.75,0],[1,0.25,0],[1,0.5,0],[1,0.75,0]];outlineConnect=0;fontColor=#232F3E;fillColor=#C925D1;strokeColor=#ffffff;dashed=0;verticalLabelPosition=bottom;verticalAlign=top;align=center;html=1;fontSize=12;fontStyle=0;aspect=fixed;shape=mxgraph.aws4.resourceIcon;resIcon=mxgraph.aws4.rds;" vertex="1" parent="cvaYXPBMhyoPEqe5Zm85-14">
          <mxGeometry x="43.5" width="48" height="48" as="geometry" />
        </mxCell>
        <mxCell id="cvaYXPBMhyoPEqe5Zm85-22" value="" style="endArrow=classic;html=1;rounded=0;" edge="1" parent="cvaYXPBMhyoPEqe5Zm85-14">
          <mxGeometry width="50" height="50" relative="1" as="geometry">
            <mxPoint x="-157" y="-270" as="sourcePoint" />
            <mxPoint x="12" y="-268" as="targetPoint" />
          </mxGeometry>
        </mxCell>
        <mxCell id="cvaYXPBMhyoPEqe5Zm85-15" value="" style="group" vertex="1" connectable="0" parent="1">
          <mxGeometry x="681" y="320" width="149" height="260" as="geometry" />
        </mxCell>
        <mxCell id="cvaYXPBMhyoPEqe5Zm85-6" value="" style="outlineConnect=0;dashed=0;verticalLabelPosition=bottom;verticalAlign=top;align=center;html=1;shape=mxgraph.aws3.s3;fillColor=#E05243;gradientColor=none;" vertex="1" parent="cvaYXPBMhyoPEqe5Zm85-15">
          <mxGeometry x="21.75" width="46.5" height="50" as="geometry" />
        </mxCell>
        <mxCell id="cvaYXPBMhyoPEqe5Zm85-7" value="S3 /car_sales.csv" style="text;html=1;strokeColor=none;fillColor=none;align=center;verticalAlign=middle;whiteSpace=wrap;rounded=0;" vertex="1" parent="cvaYXPBMhyoPEqe5Zm85-15">
          <mxGeometry y="50" width="110" height="20" as="geometry" />
        </mxCell>
        <mxCell id="cvaYXPBMhyoPEqe5Zm85-16" value="" style="group" vertex="1" connectable="0" parent="1">
          <mxGeometry x="190" y="200" width="90" height="70" as="geometry" />
        </mxCell>
        <mxCell id="cvaYXPBMhyoPEqe5Zm85-3" value="" style="rounded=1;whiteSpace=wrap;html=1;" vertex="1" parent="cvaYXPBMhyoPEqe5Zm85-16">
          <mxGeometry width="90" height="40" as="geometry" />
        </mxCell>
        <mxCell id="cvaYXPBMhyoPEqe5Zm85-4" value="Local Machine" style="text;html=1;strokeColor=none;fillColor=none;align=center;verticalAlign=middle;whiteSpace=wrap;rounded=0;" vertex="1" parent="cvaYXPBMhyoPEqe5Zm85-16">
          <mxGeometry x="15" y="40" width="60" height="30" as="geometry" />
        </mxCell>
        <mxCell id="cvaYXPBMhyoPEqe5Zm85-17" value="" style="shape=image;html=1;verticalAlign=top;verticalLabelPosition=bottom;labelBackgroundColor=#ffffff;imageAspect=0;aspect=fixed;image=https://cdn4.iconfinder.com/data/icons/ionicons/512/icon-social-github-128.png" vertex="1" parent="1">
          <mxGeometry x="305" y="20" width="70" height="70" as="geometry" />
        </mxCell>
        <mxCell id="cvaYXPBMhyoPEqe5Zm85-18" value="" style="outlineConnect=0;dashed=0;verticalLabelPosition=bottom;verticalAlign=top;align=center;html=1;shape=mxgraph.aws3.ec2;fillColor=#F58534;gradientColor=none;" vertex="1" parent="1">
          <mxGeometry x="497" y="200" width="50" height="50" as="geometry" />
        </mxCell>
        <mxCell id="cvaYXPBMhyoPEqe5Zm85-19" value="EC2 as server" style="text;html=1;strokeColor=none;fillColor=none;align=center;verticalAlign=middle;whiteSpace=wrap;rounded=0;" vertex="1" parent="1">
          <mxGeometry x="477" y="260" width="90" height="10" as="geometry" />
        </mxCell>
        <mxCell id="cvaYXPBMhyoPEqe5Zm85-20" value="" style="endArrow=classic;html=1;rounded=0;" edge="1" parent="1">
          <mxGeometry width="50" height="50" relative="1" as="geometry">
            <mxPoint x="260" y="190" as="sourcePoint" />
            <mxPoint x="320" y="100" as="targetPoint" />
          </mxGeometry>
        </mxCell>
        <mxCell id="cvaYXPBMhyoPEqe5Zm85-21" value="" style="endArrow=classic;html=1;rounded=0;entryX=0.383;entryY=0.098;entryDx=0;entryDy=0;entryPerimeter=0;" edge="1" parent="1">
          <mxGeometry width="50" height="50" relative="1" as="geometry">
            <mxPoint x="367.12" y="100" as="sourcePoint" />
            <mxPoint x="477.0000000000001" y="189.98000000000002" as="targetPoint" />
          </mxGeometry>
        </mxCell>
        <mxCell id="cvaYXPBMhyoPEqe5Zm85-23" value="SSH" style="text;html=1;strokeColor=none;fillColor=none;align=center;verticalAlign=middle;whiteSpace=wrap;rounded=0;" vertex="1" parent="1">
          <mxGeometry x="341" y="201" width="60" height="30" as="geometry" />
        </mxCell>
        <mxCell id="cvaYXPBMhyoPEqe5Zm85-8" value="" style="endArrow=classic;html=1;rounded=0;opacity=30;" edge="1" parent="1">
          <mxGeometry width="50" height="50" relative="1" as="geometry">
            <mxPoint x="663" y="317" as="sourcePoint" />
            <mxPoint x="580" y="270" as="targetPoint" />
          </mxGeometry>
        </mxCell>
        <mxCell id="cvaYXPBMhyoPEqe5Zm85-26" value="" style="endArrow=classic;html=1;rounded=0;opacity=30;" edge="1" parent="1">
          <mxGeometry width="50" height="50" relative="1" as="geometry">
            <mxPoint x="519" y="306" as="sourcePoint" />
            <mxPoint x="522" y="456" as="targetPoint" />
          </mxGeometry>
        </mxCell>
        <mxCell id="cvaYXPBMhyoPEqe5Zm85-27" value="" style="rounded=1;whiteSpace=wrap;html=1;dashed=1;strokeColor=#FFCC99;fillColor=none;fontColor=#FFB366;" vertex="1" parent="1">
          <mxGeometry x="459.25" y="190" width="120.5" height="390" as="geometry" />
        </mxCell>
        <mxCell id="cvaYXPBMhyoPEqe5Zm85-28" value="VPC - a0a" style="text;html=1;strokeColor=none;fillColor=none;align=center;verticalAlign=middle;whiteSpace=wrap;rounded=0;fontColor=#FFB366;" vertex="1" parent="1">
          <mxGeometry x="492" y="580" width="60" height="30" as="geometry" />
        </mxCell>
      </root>
    </mxGraphModel>
  </diagram>
</mxfile>
